<svg width="16" height="16" viewBox="0 0 512 512" fill="none" xmlns="http://www.w3.org/2000/svg">
<rect x="160" y="160" width="192" height="192" rx="8" ry="8" fill="#C5C5C5"/>
<path d="M464,192a16,16,0,0,0,0-32H448V128a64.07,64.07,0,0,0-64-64H352V48a16,16,0,0,0-32,0V64H272V48a16,16,0,0,0-32,0V64H192V48a16,16,0,0,0-32,0V64H128a64.07,64.07,0,0,0-64,64v32H48a16,16,0,0,0,0,32H64v48H48a16,16,0,0,0,0,32H64v48H48a16,16,0,0,0,0,32H64v32a64.07,64.07,0,0,0,64,64h32v16a16,16,0,0,0,32,0V448h48v16a16,16,0,0,0,32,0V448h48v16a16,16,0,0,0,32,0V448h32a64.07,64.07,0,0,0,64-64V352h16a16,16,0,0,0,0-32H448V272h16a16,16,0,0,0,0-32H448V192ZM384,352a32,32,0,0,1-32,32H160a32,32,0,0,1-32-32V160a32,32,0,0,1,32-32H352a32,32,0,0,1,32,32Z" fill="#C5C5C5"/>
</svg>